PathFileType	4	(X/Y/Z)	/Users/niels/Desktop/University/Third Semester/Perception and Action/Exam/Gymnastics Motion Tracking/Code for Gym Tracking/Analyzed Data/Webcam_Backflip/id19_2_trajectory_Sports2D/id19_2_trajectory_Sports2D_px_person00.trc
DataRate	CameraRate	NumFrames	NumMarkers	Units	OrigDataRate	OrigDataStartFrame	OrigNumFrames
29.714285714285715	29.714285714285715	7	22	m	29.714285714285715	52	105
Frame#	Time	Hip			RHip			RKnee			RAnkle			RBigToe			RSmallToe			RHeel			LHip			LKnee			LAnkle			LBigToe			LSmallToe			LHeel			Neck			Head			Nose			RShoulder			RElbow			RWrist			LShoulder			LElbow			LWrist		
		X1	Y1	Z1	X2	Y2	Z2	X3	Y3	Z3	X4	Y4	Z4	X5	Y5	Z5	X6	Y6	Z6	X7	Y7	Z7	X8	Y8	Z8	X9	Y9	Z9	X10	Y10	Z10	X11	Y11	Z11	X12	Y12	Z12	X13	Y13	Z13	X14	Y14	Z14	X15	Y15	Z15	X16	Y16	Z16	X17	Y17	Z17	X18	Y18	Z18	X19	Y19	Z19	X20	Y20	Z20	X21	Y21	Z21	X22	Y22	Z22
52	1.75	0.3852987161379625	-0.6564189345745253	0.0	0.3926078760450911	-0.651629703829375	0.0	0.38024887768706933	-0.7936596970664411	0.0	0.38382283332920647	-0.9226464699536958	0.0	0.32538639029843114	-0.9535043579191033	0.0	0.33061275153992836	-0.9477293035697971	0.0	0.3943550807899851	-0.9446072708419091	0.0	0.3759009331355102	-0.6536793733622854	0.0	0.38367180009158264	-0.797468058175311	0.0	0.39090996574697784	-0.9343060659904573	0.0	0.33244538138330115	-0.9620967404692776	0.0	0.3431529001140766	-0.9683413483100644	0.0	0.4028529565076433	-0.9574691449803104	0.0	0.3868165857678025	-0.48942330905298054	0.0	0.37318071955837945	-0.4020206964576229	0.0	0.35076937106287526	-0.4538966876393904	0.0	0.4111826729260538	-0.506862908643918	0.0	0.3808210808847701	-0.5797365463460539	0.0	0.33328192103072857	-0.5577326074926342	0.0	0.35971439183193765	-0.511571992458721	0.0	0.33925438610726416	-0.5959808015050089	0.0	0.3021484153572421	-0.5612741000154086	0.0
53	1.783653846153846	0.38431667638565636	-0.6571805255140242	0.0	0.39087409520865235	-0.6518989046354354	0.0	0.3795364984792017	-0.7941999859712588	0.0	0.38349439058263884	-0.922530182655929	0.0	0.32535889292089853	-0.953261485667441	0.0	0.33063897064670866	-0.9473601699708805	0.0	0.3941776805606362	-0.9445536129108669	0.0	0.3753641294642617	-0.654092418997236	0.0	0.38345477739352796	-0.7980746634346969	0.0	0.39070498782842744	-0.9345031272745452	0.0	0.3326055363579073	-0.9622813338704679	0.0	0.34329136508602687	-0.968855484822374	0.0	0.402882044994509	-0.9576890405775855	0.0	0.3869551334079618	-0.4894793902973555	0.0	0.3719691497476577	-0.4015166205261565	0.0	0.34872158585131136	-0.45299891276860815	0.0	0.41090808332517487	-0.5063575260748441	0.0	0.3778826764336548	-0.5802797653785835	0.0	0.33053953573379913	-0.5567677857440506	0.0	0.36080170547910406	-0.5122116778655071	0.0	0.3381168023543418	-0.5957311637251367	0.0	0.30138639610622975	-0.5602325183375432	0.0
54	1.8173076923076923	0.3829772798135645	-0.6582164030442248	0.0	0.38875350321889995	-0.6522849960860203	0.0	0.37863217060878557	-0.7948512806461133	0.0	0.3831515010683519	-0.9222423429848212	0.0	0.3252146327196003	-0.9530125385688316	0.0	0.3306205119633264	-0.9468915559107763	0.0	0.3939318455576903	-0.944303920854243	0.0	0.37477535113873817	-0.6546999222119555	0.0	0.3831973151246365	-0.798769023918748	0.0	0.3905706112795044	-0.9344510741565211	0.0	0.33275519327185876	-0.9623670411367113	0.0	0.34351851170749126	-0.9692426822726349	0.0	0.4028830370469129	-0.9576932470829242	0.0	0.38709331923169	-0.48941976546012794	0.0	0.3706354569249219	-0.40085710124180834	0.0	0.34663132389488466	-0.4517105368637366	0.0	0.41102434768466	-0.5057766679665662	0.0	0.37570826516267425	-0.5804063230631296	0.0	0.3286947213179573	-0.5558300081910975	0.0	0.3619959837948168	-0.5126131288750233	0.0	0.3373777102479488	-0.5955089174461383	0.0	0.3004921229675363	-0.5592266616855068	0.0
55	1.8509615384615383	0.3813772893201311	-0.6592922760834523	0.0	0.3863778723370701	-0.6527432430417819	0.0	0.3775481176324271	-0.7954100109716624	0.0	0.3827746120381674	-0.9217154696230462	0.0	0.3248989714971613	-0.952621414234992	0.0	0.33053765010823566	-0.9461972105969434	0.0	0.3936030451681552	-0.9437889220591267	0.0	0.3742418249151442	-0.6553693289927428	0.0	0.3829110342575984	-0.7994262488903304	0.0	0.39052952699838533	-0.9341544027643847	0.0	0.33285691048042654	-0.96231054378439	0.0	0.34384588839909447	-0.9693672469337484	0.0	0.40288245997408445	-0.9573991387219559	0.0	0.38725779319853704	-0.4891095714771411	0.0	0.3692090420461984	-0.40014728686930556	0.0	0.3450964626274619	-0.4501842628251179	0.0	0.41150476374711825	-0.5051327465074029	0.0	0.3753698099297142	-0.5791784659945652	0.0	0.32892139147788957	-0.5548854703384736	0.0	0.36324079210719656	-0.5127179513498735	0.0	0.3371468510108012	-0.5954038106767182	0.0	0.29968351917695163	-0.5583684487466062	0.0
56	1.8846153846153846	0.3796323112694508	-0.6601689079391234	0.0	0.3838335006207805	-0.6532699506564013	0.0	0.37633834128528454	-0.7957638019430349	0.0	0.3823135878851538	-0.9210062729264202	0.0	0.32435797020169155	-0.9519801347000661	0.0	0.3303646928253216	-0.9452096361044577	0.0	0.39316156268824565	-0.9430194003962079	0.0	0.3738947696495887	-0.6560029363134314	0.0	0.3825885184472979	-0.8000333318942872	0.0	0.39054913221929305	-0.9338000978562034	0.0	0.3328880771267503	-0.9621402078932405	0.0	0.34430089008836323	-0.9692183402695654	0.0	0.40289942898035896	-0.9568765637529938	0.0	0.3874807195313628	-0.48850212577111873	0.0	0.3677690208827677	-0.399504361858502	0.0	0.34459602602807454	-0.4487353980089154	0.0	0.41216219323528247	-0.5044332888535931	0.0	0.3777801843350635	-0.5752549989797415	0.0	0.3322776249295285	-0.5536872466541218	0.0	0.3646483201649889	-0.5125329233970608	0.0	0.33751956874522704	-0.5954546344507505	0.0	0.29925276364947356	-0.5577602858563281	0.0
57	1.9182692307692306	0.37785683500048073	-0.6607673289555794	0.0	0.3811052787529934	-0.6539120498209975	0.0	0.37508955640801567	-0.795976520239397	0.0	0.3817060678953839	-0.9202913683655887	0.0	0.3235842787073564	-0.9510967942501283	0.0	0.33007625816830183	-0.9439537568198214	0.0	0.3925784428583136	-0.9420999211069101	0.0	0.3738537509961211	-0.6566200886546164	0.0	0.3822421297677893	-0.800691379125631	0.0	0.3905646129922431	-0.9336501953044278	0.0	0.3328556806391775	-0.961999826283717	0.0	0.34490518931735675	-0.9689502222106258	0.0	0.4029059613235375	-0.9563266477103994	0.0	0.3877189623934804	-0.487669442881492	0.0	0.3664879357866762	-0.3990200758961669	0.0	0.34526141994180937	-0.4476880815877648	0.0	0.4127085597422415	-0.5037176058097311	0.0	0.3832952242456229	-0.5675631047176791	0.0	0.33910151339770755	-0.5519643439671312	0.0	0.36642204453797056	-0.5120796972843774	0.0	0.33850442136142733	-0.595554128418155	0.0	0.29937098420321384	-0.5574611744050928	0.0
58	1.9519230769230769	0.37617805714968683	-0.6611739852216474	0.0	0.37820481094456115	-0.6546808179662668	0.0	0.3739217585834908	-0.7961987046486777	0.0	0.3809407559436172	-0.9197778970972006	0.0	0.3227104684449987	-0.9500992513813208	0.0	0.32969910555400467	-0.9425882217257063	0.0	0.3918860223344468	-0.9412238360545789	0.0	0.37413090214898315	-0.6572752467483558	0.0	0.3819163200177063	-0.8014795274534539	0.0	0.3905202727494151	-0.9338663553016309	0.0	0.33276988546722586	-0.9620403125551457	0.0	0.34559590530816836	-0.9687716648258082	0.0	0.4028295957218123	-0.9559490539983372	0.0	0.3878566653790995	-0.4867591432655092	0.0	0.36558260027657175	-0.3987325035394063	0.0	0.3468372777425797	-0.4471853778057187	0.0	0.41289045451455686	-0.5030782648761425	0.0	0.3911110642383054	-0.5564914116099101	0.0	0.3482676184130004	-0.5497954135950053	0.0	0.368680430270867	-0.5114096522910293	0.0	0.33999818464689135	-0.5955214433184305	0.0	0.29993779383159797	-0.5575284928014715	0.0
